HIERARCHY
ROOT Hips
{
    OFFSET 0.000000 0.000000 0.000000
    CHANNELS 6 Xposition Yposition Zposition Zrotation Xrotation Yrotation
    JOINT Spine
    {
        OFFSET -0.000000 8.079700 0.000000
        CHANNELS 3 Zrotation Xrotation Yrotation
        JOINT Spine1
        {
            OFFSET -0.000000 23.289207 0.000000
            CHANNELS 3 Zrotation Xrotation Yrotation
            JOINT Neck
            {
                OFFSET -0.000000 23.193563 2.108506
                CHANNELS 3 Zrotation Xrotation Yrotation
                JOINT Head
                {
                    OFFSET -0.000000 13.794610 -1.970658
                    CHANNELS 3 Zrotation Xrotation Yrotation
                    End Site
                    {
                        OFFSET -0.000000 24.633232 0.000000
                    }
                }
            }
            JOINT LeftShoulder
            {
                OFFSET 3.964071 21.437269 -0.109506
                CHANNELS 3 Zrotation Xrotation Yrotation
                JOINT LeftArm
                {
                    OFFSET 10.889085 0.000000 0.000000
                    CHANNELS 3 Zrotation Xrotation Yrotation
                    JOINT LeftForeArm
                    {
                        OFFSET 33.323662 0.000000 0.000000
                        CHANNELS 3 Zrotation Xrotation Yrotation
                        JOINT LeftHand
                        {
                            OFFSET 25.127829 0.000000 0.000000
                            CHANNELS 3 Zrotation Xrotation Yrotation
                            End Site
                            {
                                OFFSET 14.779941 0.000000 0.000000
                            }
                        }
                    }
                }
            }
            JOINT RightShoulder
            {
                OFFSET -3.907116 21.437269 -0.109506
                CHANNELS 3 Zrotation Xrotation Yrotation
                JOINT RightArm
                {
                    OFFSET -10.889085 0.000000 0.000000
                    CHANNELS 3 Zrotation Xrotation Yrotation
                    JOINT RightForeArm
                    {
                        OFFSET -33.323662 0.000000 0.000000
                        CHANNELS 3 Zrotation Xrotation Yrotation
                        JOINT RightHand
                        {
                            OFFSET -25.127829 0.000000 0.000000
                            CHANNELS 3 Zrotation Xrotation Yrotation
                            End Site
                            {
                                OFFSET -14.779941 0.000000 0.000000
                            }
                        }
                    }
                }
            }
        }
    }
    JOINT LeftUpLeg
    {
        OFFSET 9.853293 0.000000 0.000000
        CHANNELS 3 Zrotation Xrotation Yrotation
        JOINT LeftLeg
        {
            OFFSET -0.000000 -42.191887 0.000000
            CHANNELS 3 Zrotation Xrotation Yrotation
            JOINT LeftFoot
            {
                OFFSET -0.000000 -39.359688 0.000000
                CHANNELS 3 Zrotation Xrotation Yrotation
                JOINT LeftToeBase
                {
                    OFFSET -0.000000 -6.404640 14.779941
                    CHANNELS 3 Zrotation Xrotation Yrotation
                    End Site
                    {
                        OFFSET -0.000000 0.000000 3.941317
                    }
                }
            }
        }
    }
    JOINT RightUpLeg
    {
        OFFSET -9.853293 0.000000 0.000000
        CHANNELS 3 Zrotation Xrotation Yrotation
        JOINT RightLeg
        {
            OFFSET -0.000000 -42.191887 0.000000
            CHANNELS 3 Zrotation Xrotation Yrotation
            JOINT RightFoot
            {
                OFFSET -0.000000 -39.359688 0.000000
                CHANNELS 3 Zrotation Xrotation Yrotation
                JOINT RightToeBase
                {
                    OFFSET -0.000000 -6.404640 14.779941
                    CHANNELS 3 Zrotation Xrotation Yrotation
                    End Site
                    {
                        OFFSET -0.000000 0.000000 3.941317
                    }
                }
            }
        }
    }
}
MOTION
Frames:    14
Frame Time:    0.008333
-5.798814    92.267540    218.676086    1.307520    2.483826    176.783875    1.892605    0.641801    -0.690884    -0.892271    -1.457910    -0.691644    9.832963    18.555002    10.000498    -19.922440    -4.451693    7.030021    17.397932    5.205835    5.328041    -19.771551    -0.002176    -2.852539    3.683827    -3.762577    -1.369141    16.034714    -4.650519    -6.626299    -8.503734    2.378733    5.322035    15.998256    -4.570365    2.413784    -1.342160    0.736559    -2.557941    -8.414151    -0.162546    11.773273    0.698810    7.886629    8.158601    -1.803657    -0.095627    10.052180    3.001001    -1.849666    8.814343    0.000000    0.000000    0.000000    -2.419636    9.333347    7.632061    5.004055    -1.038311    0.163441    -12.712611    -0.967352    -19.220764    0.000000    0.000000    0.000000    
-5.801324    92.265991    218.670944    1.301384    2.480926    176.791870    1.882977    0.639677    -0.691945    -0.897485    -1.441890    -0.692841    9.832963    18.555002    10.000498    -19.922440    -4.451693    7.030021    17.415310    5.208973    5.322313    -19.786713    -0.021573    -2.850506    3.677918    -3.753136    -1.352761    16.088634    -4.643105    -6.613875    -8.527287    2.368236    5.332250    16.002449    -4.577386    2.400472    -1.381994    0.810777    -2.578838    -7.821135    -0.054992    12.165936    0.696254    7.888762    8.160933    -1.815253    -0.105990    10.056573    3.016617    -1.835847    8.808575    0.000000    0.000000    0.000000    -2.419636    9.333347    7.632061    5.004055    -1.038311    0.163441    -12.712611    -0.967352    -19.220764    0.000000    0.000000    0.000000    
-5.802506    92.264000    218.666748    1.304137    2.477066    176.803650    1.881061    0.640065    -0.695955    -0.899279    -1.436446    -0.696717    9.832963    18.555002    10.000498    -19.922440    -4.451693    7.030021    17.419218    5.201561    5.309220    -19.787998    -0.005670    -2.837402    3.680468    -3.746900    -1.332594    16.106754    -4.634905    -6.588231    -8.514819    2.388195    5.333887    15.955248    -4.607683    2.416018    -1.332570    0.715435    -2.573253    -8.395209    -0.182753    11.789262    0.699254    7.879729    8.176825    -1.813207    -0.095611    10.065002    3.012279    -1.850978    8.779016    0.000000    0.000000    0.000000    -2.419636    9.333347    7.632061    5.004055    -1.038311    0.163441    -12.712611    -0.967352    -19.220764    0.000000    0.000000    0.000000    
-5.804629    92.265617    218.660828    1.301268    2.490931    176.814270    1.874903    0.663374    -0.698294    -0.913227    -1.436996    -0.698943    9.832963    18.555002    10.000498    -19.922440    -4.451693    7.030021    17.437819    5.213634    5.290788    -19.795828    -0.015825    -2.830408    3.679147    -3.728707    -1.307866    16.141106    -4.615591    -6.560236    -8.481318    2.406500    5.340469    15.894603    -4.630459    2.404907    -1.324317    0.683804    -2.563529    -8.335390    -0.209599    11.813398    0.692936    7.894784    8.171023    -1.807838    -0.094537    10.033160    3.032038    -1.837136    8.796978    0.000000    0.000000    0.000000    -2.419636    9.333347    7.632061    5.004055    -1.038311    0.163441    -12.712611    -0.967352    -19.220764    0.000000    0.000000    0.000000    
-5.805570    92.265060    218.657608    1.307565    2.488214    176.822372    1.869507    0.673885    -0.694435    -0.907785    -1.441489    -0.694951    9.832963    18.555002    10.000498    -19.922440    -4.451693    7.030021    17.439816    5.230376    5.255592    -19.798037    -0.014077    -2.808486    3.695375    -3.730128    -1.297313    16.114740    -4.615026    -6.555974    -8.469004    2.393467    5.336702    15.853479    -4.646047    2.390927    -1.333323    0.696831    -2.570877    -8.228583    -0.190534    11.878534    0.706744    7.894268    8.166689    -1.822968    -0.085717    9.973524    3.031657    -1.853322    8.845328    0.000000    0.000000    0.000000    -2.419636    9.333347    7.632061    5.004055    -1.038311    0.163441    -12.712611    -0.967352    -19.220764    0.000000    0.000000    0.000000    
-5.804928    92.265068    218.652695    1.311396    2.500913    176.821579    1.852509    0.700002    -0.684593    -0.893005    -1.439197    -0.684518    9.832963    18.555002    10.000498    -19.922440    -4.451693    7.030021    17.454985    5.230040    5.237520    -19.805384    -0.006909    -2.802059    3.691497    -3.716398    -1.292773    16.099899    -4.601738    -6.563788    -8.458370    2.395133    5.350499    15.802665    -4.640041    2.345449    -1.307586    0.726363    -2.562922    -8.275008    -0.161610    11.829506    0.712565    7.908106    8.173619    -1.825135    -0.090752    10.056558    3.013570    -1.847477    8.763935    0.000000    0.000000    0.000000    -2.419636    9.333347    7.632061    5.004055    -1.038311    0.163441    -12.712611    -0.967352    -19.220764    0.000000    0.000000    0.000000    
-5.807156    92.265602    218.651276    1.314408    2.504935    176.832336    1.841185    0.718106    -0.679198    -0.890374    -1.440052    -0.678875    9.832963    18.555002    10.000498    -19.922440    -4.451693    7.030021    17.476027    5.244271    5.202773    -19.819561    -0.059326    -2.792085    3.696692    -3.680679    -1.281237    16.095116    -4.567291    -6.572252    -8.443551    2.387883    5.356634    15.770349    -4.634689    2.309195    -1.385501    0.583363    -2.537755    -8.146648    -0.296327    11.880421    0.715141    7.913678    8.124976    -1.823607    -0.086681    10.040560    3.019491    -1.855811    8.815794    0.000000    0.000000    0.000000    -2.419636    9.333347    7.632061    5.004055    -1.038311    0.163441    -12.712611    -0.967352    -19.220764    0.000000    0.000000    0.000000    
-5.807814    92.268738    218.651077    1.318069    2.503825    176.830414    1.820486    0.746720    -0.668141    -0.863721    -1.465193    -0.667388    9.832963    18.555002    10.000498    -19.922440    -4.451693    7.030021    17.476112    5.235552    5.169750    -19.625538    -0.774763    -2.651482    3.137865    -3.286962    -1.592495    16.391388    -4.186015    -6.551448    -8.435007    2.400093    5.360535    15.731804    -4.588163    2.277769    -1.327350    0.692685    -2.510003    -8.317086    -0.197940    11.808266    0.724227    7.909843    8.155350    -1.837424    -0.078480    10.005396    3.024621    -1.839834    8.831277    0.000000    0.000000    0.000000    -2.419636    9.333347    7.632061    5.004055    -1.038311    0.163441    -12.712611    -0.967352    -19.220764    0.000000    0.000000    0.000000    
-5.809245    92.267136    218.649536    1.320279    2.495608    176.836624    1.822252    0.750709    -0.669631    -0.874575    -1.457302    -0.668804    9.832963    18.555002    10.000498    -19.922440    -4.451693    7.030021    17.492203    5.220040    5.168886    -19.612514    -0.844578    -2.621158    3.094630    -3.238993    -1.636340    16.433363    -4.138177    -6.538956    -8.432646    2.384716    5.380695    15.743251    -4.547165    2.206932    -1.401496    0.655836    -2.396525    -8.324729    -0.231565    11.750116    0.724496    7.904680    8.108941    -1.830656    -0.079387    10.009282    3.030967    -1.856641    8.872081    0.000000    0.000000    0.000000    -2.419636    9.333347    7.632061    5.004055    -1.038311    0.163441    -12.712611    -0.967352    -19.220764    0.000000    0.000000    0.000000    
-5.811257    92.269272    218.647186    1.321851    2.503669    176.839066    1.816635    0.771284    -0.669103    -0.866024    -1.446819    -0.667846    9.832963    18.555002    10.000498    -19.922440    -4.451693    7.030021    17.468969    5.221211    5.169865    -19.595346    -0.800628    -2.609919    3.124182    -3.280076    -1.648119    16.392372    -4.174627    -6.528721    -8.465426    2.381207    5.385469    15.757381    -4.564174    2.194276    -1.413939    0.630587    -2.363585    -8.426567    -0.264647    11.715998    0.727206    7.912316    8.105718    -1.836046    -0.071140    10.016894    3.045767    -1.851259    8.847605    0.000000    0.000000    0.000000    -2.419636    9.333347    7.632061    5.004055    -1.038311    0.163441    -12.712611    -0.967352    -19.220764    0.000000    0.000000    0.000000    
-5.812168    92.269745    218.645096    1.322694    2.505252    176.842804    1.821634    0.785856    -0.672341    -0.880874    -1.446189    -0.670987    9.832963    18.555002    10.000498    -19.922440    -4.451693    7.030021    17.472908    5.224636    5.158126    -19.577456    -0.886139    -2.578602    3.107284    -3.269802    -1.679733    16.381845    -4.149852    -6.436463    -8.465425    2.385287    5.403513    15.730921    -4.503139    2.226668    -1.391864    0.554451    -2.457129    -8.486751    -0.352671    11.782278    0.722547    7.919648    8.078267    -1.829340    -0.090430    10.057583    3.053141    -1.836501    8.838500    0.000000    0.000000    0.000000    -2.419636    9.333347    7.632061    5.004055    -1.038311    0.163441    -12.712611    -0.967352    -19.220764    0.000000    0.000000    0.000000    
-5.811059    92.269104    218.643005    1.327809    2.503659    176.833572    1.828433    0.799402    -0.669931    -0.892334    -1.442608    -0.668377    9.832963    18.555002    10.000498    -19.922440    -4.451693    7.030021    17.472775    5.232039    5.182533    -19.574743    -0.878494    -2.597829    3.136770    -3.319044    -1.667051    16.373083    -4.198809    -6.438739    -8.457715    2.380434    5.414351    15.713655    -4.481471    2.223245    -1.409171    0.532525    -2.448873    -8.502909    -0.375766    11.771728    0.725705    7.913777    8.131261    -1.821979    -0.075481    10.007385    3.033819    -1.847974    8.850246    0.000000    0.000000    0.000000    -2.419636    9.333347    7.632061    5.004055    -1.038311    0.163441    -12.712611    -0.967352    -19.220764    0.000000    0.000000    0.000000    
-5.813586    92.269348    218.643234    1.330123    2.496881    176.836929    1.835110    0.805120    -0.668204    -0.905241    -1.428450    -0.666561    9.832963    18.555002    10.000498    -19.922440    -4.451693    7.030021    17.487206    5.224214    5.182769    -19.561438    -0.943490    -2.583610    3.087388    -3.314199    -1.695563    16.433294    -4.193083    -6.409362    -8.458737    2.381581    5.413000    15.703057    -4.462945    2.229916    -1.433383    0.525005    -2.457541    -8.513894    -0.385058    11.773894    0.725314    7.910847    8.113772    -1.817678    -0.089164    10.042316    3.019329    -1.841013    8.822909    0.000000    0.000000    0.000000    -2.419636    9.333347    7.632061    5.004055    -1.038311    0.163441    -12.712611    -0.967352    -19.220764    0.000000    0.000000    0.000000    
-5.813022    92.267418    218.640808    1.327316    2.493010    176.831604    1.827239    0.810026    -0.670614    -0.892075    -1.416475    -0.668731    9.832963    18.555002    10.000498    -19.922440    -4.451693    7.030021    17.459278    5.226154    5.191720    -19.732262    -0.189549    -2.693947    3.661309    -3.736382    -1.369769    16.122122    -4.601777    -6.428927    -8.478027    2.383234    5.428337    15.699690    -4.457363    2.240254    -1.508135    0.671219    -2.503301    -7.852013    -0.199214    12.158874    0.723164    7.909806    8.133402    -1.821740    -0.091827    10.019565    3.026641    -1.843658    8.828506    0.000000    0.000000    0.000000    -2.419636    9.333347    7.632061    5.004055    -1.038311    0.163441    -12.712611    -0.967352    -19.220764    0.000000    0.000000    0.000000    
